<svg xmlns="http://www.w3.org/2000/svg" xmlns:xlink="http://www.w3.org/1999/xlink" width="166.377" height="115.989" viewBox="0 0 166.377 115.989">
  <defs>
    <linearGradient id="linear-gradient" x1="-2959.368" y1="3212.863" x2="2959.368" y2="-3211.863" gradientUnits="objectBoundingBox">
      <stop offset="0" stop-color="#00062f"/>
      <stop offset="1" stop-color="#110d7f"/>
    </linearGradient>
    <linearGradient id="linear-gradient-2" x1="-1079.725" y1="1761.045" x2="3677.416" y2="-5991.256" xlink:href="#linear-gradient"/>
  </defs>
  <g id="Layer_1-2" transform="translate(-0.01 0.012)">
    <line id="Line_2" data-name="Line 2" x1="0.003" y2="0.003" transform="translate(51.154 86.901)" fill="#fff"/>
    <path id="Path_30" data-name="Path 30" d="M305.542,210.65l-1.435,8.844-1.435,8.849-1.892,11.684-8.288,3.366,1.9-11.681,1.435-8.849-8.285,3.371-8.285,3.368-8.285,3.368-8.285,3.368-8.288,3.371-8.283,3.366-8.288,3.371-8.283,3.371,1.433-8.846,8.285-3.371,8.285-3.371,8.285-3.366,8.285-3.371,8.288-3.368,8.283-3.368,8.288-3.368,8.283-3.371Z" transform="translate(-171.533 -157.433)" fill="#fff"/>
    <path id="Path_31" data-name="Path 31" d="M299.576,227.32l-1.415,8.841-4.134,1.68-4.207,1.711,1.415-8.839L295.462,229Z" transform="translate(-216.582 -169.891)" fill="#fff"/>
    <line id="Line_3" data-name="Line 3" x1="0.005" y2="0.003" transform="translate(52.587 78.057)" fill="url(#linear-gradient)"/>
    <path id="Path_32" data-name="Path 32" d="M250.608,247.28l-1.435,8.846L240.89,259.5l1.433-8.846Z" transform="translate(-180.016 -184.808)" fill="#fff"/>
    <line id="Line_4" data-name="Line 4" x1="0.003" transform="translate(54.022 69.211)" fill="#fff"/>
    <line id="Line_5" data-name="Line 5" x1="0.003" transform="translate(22.316 73.838)" fill="#fff"/>
    <line id="Line_6" data-name="Line 6" x1="0.003" transform="translate(58.325 42.673)" fill="#fff"/>
    <line id="Line_7" data-name="Line 7" x1="0.03" y2="0.01" transform="translate(16.204 63.789)" fill="url(#linear-gradient-2)"/>
    <path id="Path_33" data-name="Path 33" d="M131.459,73.986l-8.283,3.371-8.283,3.368L106.606,84.1l-8.288,3.371-8.288,3.371L81.748,94.2,73.46,97.575l-8.283,3.368-8.283,3.371h0l1.435-8.846,1.435-8.846L61.2,77.776l-8.283,3.368-8.283,3.371L36.347,87.88l-8.283,3.371L26.629,100.1l-1.435,8.846-1.435,8.846-1.433,8.844,8.283-3.368L38.9,119.9l8.283-3.368-1.435,8.846-1.435,8.846-1.435,8.846-8.283,3.371L26.306,149.8l-8.288,3.371-8.283,3.371,1.435-8.846,1.435-8.849,2.868-17.692-8.288,3.371-1.435,8.846-1.435,8.846L2.88,151.069l-1.435,8.846L.01,168.762,8.3,165.391l8.283-3.371,8.288-3.371,8.285-3.366,8.283-3.371,8.283-3.368h0l1.433-8.846,1.435-8.846L54.022,122l1.435-8.846h0l8.283-3.366,8.283-3.371,8.288-3.371L88.6,99.683l8.288-3.371,8.285-3.366h0l8.283-3.371,8.285-3.366h0l8.283-3.371,8.288-3.371,1.435-8.849-8.288,3.371ZM50.04,98.829,48.6,107.675l-8.283,3.368-8.288,3.371,1.435-8.846L34.9,96.721l8.288-3.371,8.283-3.368Z" transform="translate(0 -52.785)" fill="#fff"/>
    <path id="Path_34" data-name="Path 34" d="M390.4,140.63l-1.435,8.846-8.285,3.366v0l-8.285,3.368-8.285,3.371-8.285,3.366-8.285,3.371-8.288,3.368,1.435-8.846,8.285-3.368,8.288-3.368v0l8.283-3.366,8.288-3.368v0L382.111,144Z" transform="translate(-253.522 -105.105)" fill="#fff"/>
    <path id="Path_35" data-name="Path 35" d="M229.433,98.9,228,107.749l-1.435,8.844-1.435,8.846" transform="translate(-168.238 -73.92)" fill="#fff"/>
    <path id="Path_36" data-name="Path 36" d="M196.74,274.322l1.438-8.846,1.435-8.844,1.433-8.846,1.435-8.846" transform="translate(-147.021 -178.575)" fill="#fff"/>
    <line id="Line_8" data-name="Line 8" x1="0.003" transform="translate(22.316 73.838)" fill="#fff"/>
    <path id="Path_37" data-name="Path 37" d="M41.046,217.17l-.756,4.652L39.6,226.1l-8.285,3.371.695-4.28v0l.753-4.654Z" transform="translate(-23.391 -162.306)" fill="#fff"/>
    <path id="Path_38" data-name="Path 38" d="M39.73,177.777l1.435-8.849,8.288-3.368-1.435,8.846Z" transform="translate(-29.684 -123.736)" fill="#fff"/>
    <path id="Path_39" data-name="Path 39" d="M410.783,313.76c.617,7.527.053,8.376-7.123,10.734,7.527-.617,8.376-.053,10.734,7.123-.617-7.527-.053-8.376,7.123-10.734C413.989,321.5,413.14,320.936,410.783,313.76Z" transform="translate(-301.658 -234.49)" fill="#fff"/>
    <path id="Path_40" data-name="Path 40" d="M347.456,58.494c-.564-.412-1.109-.076-1.455.392.346-.465.5-1.087-.066-1.5-.316-.25-.927-.72-1.369-1.036a.579.579,0,0,0-.814.147l-.346.465-1.733,2.355-.692.93.927.72,3.285,2.428.488.376.465.346.695-.958,1.736-2.355.723-.955s-1.3-.948-1.839-1.357ZM342.6,60.007l1.761-2.35,1.15.877-1.736,2.355L342.6,60.01Zm3.28,2.456L343.8,60.919l1.344.1,1.324-1.789,1.175.882Z" transform="translate(-254.815 -42.041)" fill="#fff"/>
    <path id="Path_41" data-name="Path 41" d="M436.347,5.78h-.025l-1.1.321-.735-1.92-1.678.473-1.039-.917,2.284-.667-.735-1.92-1.925.548.376,2.039.616,3.184-1.071.3-.056.02-.121-.574L430.853,5.2l-.528-2.8-.066-.354-.116-.6L430.05.875l1.071-.3.056-.02,1.706-.5.03-.023a1.23,1.23,0,0,1,1.511.733l1.395,3.593.326.862.2.556Z" transform="translate(-321.379)" fill="#fff"/>
    <path id="Path_42" data-name="Path 42" d="M536.908,4.643l-2.724-1.059-1.092-.445L530.75,9.149l1.1.419.22-.533.339-.867,1.961.758-.04,1.033-.015.584.892.341.177.073.043-.606.043-1.059a1.148,1.148,0,0,0,1.172-.715c.038-.1.9-2.317.948-2.446a1.15,1.15,0,0,0-.68-1.488ZM535.546,8.13l-2.724-1.059.94-2.393,2.724,1.059Z" transform="translate(-396.635 -2.356)" fill="#fff"/>
    <path id="Path_43" data-name="Path 43" d="M590.283,266.856c-.238-.24-2.969-2.87-2.969-2.87l-.023-.03a1.143,1.143,0,0,0-1.627.051l-1.9,1.935-1.172.025-.334.574-.308.6,1.334-.033a1.028,1.028,0,0,0,.323.649h.025s2.726,2.658,2.964,2.9a1.147,1.147,0,0,0,1.63-.051l2.052-2.1a1.173,1.173,0,0,0,.005-1.65Zm-2.891,2.939-2.941-2.868,2.052-2.1,2.941,2.868Z" transform="translate(-434.898 -197.034)" fill="#fff"/>
    <path id="Path_44" data-name="Path 44" d="M340.96,72.09l.927.718,3.285,2.428.49.376.465.346" transform="translate(-254.8 -53.884)" fill="#fff"/>
    <path id="Path_45" data-name="Path 45" d="M433.23,20.61l.283,1.471.121.571" transform="translate(-323.756 -15.412)" fill="#fff"/>
    <path id="Path_46" data-name="Path 46" d="M453.408,18.718l-.2-.556-.328-.862" transform="translate(-338.441 -12.938)" fill="#fff"/>
    <line id="Line_9" data-name="Line 9" x1="2.342" y2="6.006" transform="translate(134.112 0.784)" fill="#110d7f"/>
    <path id="Path_47" data-name="Path 47" d="M614.542,74.741l-.344.2-.169.086-.776.5-.47-.773-.159-.232.8-.493-1.493-2.514-1.258.761,1.519,2.517h-1.385l-1.162-1.915-1.258.761,1.519,2.517.97-.579.6,1-.485.291-.773.47-.715.422-.6-1-1.519-2.517-.6-1,.488-.316.515-.313,3.515-2.095.516-.313.513-.288.6,1,1.519,2.517.288.513a.567.567,0,0,1-.2.8Z" transform="translate(-453.454 -52.255)" fill="#fff"/>
    <path id="Path_48" data-name="Path 48" d="M637.639,178.412l-.071.6a.548.548,0,0,1-.563.493l-.66-.051-.92-.106.106-1.157.92.106.311-2.918-1.448-.141L635,178.16l-1.1-.819.23-2.234-1.448-.141-.311,2.918,1.129.131-.106,1.157-.579-.066-1.708-.172.106-1.157.283-2.921.106-1.157.581.04.6.071,4.078.392,1.155.134-.106,1.157-.283,2.921Z" transform="translate(-471.637 -129.819)" fill="#fff"/>
    <path id="Path_49" data-name="Path 49" d="M581.95,274.035l.311-.6.331-.574" transform="translate(-434.898 -203.924)" fill="#fff"/>
  </g>
</svg>
