<svg xmlns="http://www.w3.org/2000/svg" xmlns:xlink="http://www.w3.org/1999/xlink" width="77.622" height="77.622" viewBox="0 0 77.622 77.622">
  <defs>
    <filter id="Path_134">
      <feOffset dy="3" input="SourceAlpha"/>
      <feGaussianBlur stdDeviation="3" result="blur"/>
      <feFlood flood-color="#da72ff" result="color"/>
      <feComposite operator="out" in="SourceGraphic" in2="blur"/>
      <feComposite operator="in" in="color"/>
      <feComposite operator="in" in2="SourceGraphic"/>
    </filter>
  </defs>
  <g id="Group_144" data-name="Group 144" transform="translate(-1685.449 -1510.949)">
    <g id="_6" data-name="6" transform="translate(1685.449 1510.949)">
      <g data-type="innerShadowGroup">
        <path id="Path_134-2" data-name="Path 134" d="M28.658,16.045a2.518,2.518,0,0,0-1.274-2.2L19.338,9.2a2.541,2.541,0,0,0-3.815,2.2v9.29a2.549,2.549,0,0,0,2.54,2.549,2.545,2.545,0,0,0,1.275-.346l8.045-4.645A2.519,2.519,0,0,0,28.658,16.045Zm-2.066.831-8.045,4.645a.957.957,0,0,1-1.439-.831V11.4a.942.942,0,0,1,.478-.833.982.982,0,0,1,.482-.131.946.946,0,0,1,.479.133l8.045,4.645a.957.957,0,0,1,0,1.662ZM72.018,23a2.8,2.8,0,0,0-.148-.256A2.776,2.776,0,0,0,72.9,18.811a2.776,2.776,0,0,0,1.054-4.049,2.778,2.778,0,0,0-1.385-5.186H65.39a3.758,3.758,0,0,1-.333-3.323,6.417,6.417,0,0,0,.286-2.745A4.473,4.473,0,0,0,63.654.466a2.4,2.4,0,0,0-1.963-.4c-.559.132-1.87.7-1.959,3.141a8.621,8.621,0,0,1-2.1,4.627c-.242.231-.48.438-.732.656a11.464,11.464,0,0,0-1.685,1.7,2.707,2.707,0,0,0-1.747-.638h-2.43a2.723,2.723,0,0,0-2.72,2.72V22.765H44.178V5.8a5.8,5.8,0,0,0-5.8-5.8H5.8A5.8,5.8,0,0,0,0,5.8v20.5a5.8,5.8,0,0,0,5.8,5.8H24.568V46.173a16.689,16.689,0,1,0,8.4,10.908H51.452L64.014,67.412a.792.792,0,0,0,1.3-.612V57.081h4.85a7.471,7.471,0,0,0,7.462-7.462V30.228A7.48,7.48,0,0,0,72.018,23ZM57.941,9.686c.255-.221.519-.451.789-.708a10.1,10.1,0,0,0,2.585-5.714c.016-.45.122-1.511.74-1.658a.833.833,0,0,1,.693.16A2.921,2.921,0,0,1,63.77,3.7a4.938,4.938,0,0,1-.24,2.127,5.04,5.04,0,0,0-.106,3.083.792.792,0,0,0-1.252.951,2.411,2.411,0,0,0,2.13,1.3h8.269a1.194,1.194,0,1,1,0,2.388h-.91a.792.792,0,1,0,0,1.584,1.194,1.194,0,1,1,0,2.388h-1.1a.792.792,0,1,0,0,1.584,1.194,1.194,0,1,1,0,2.388H69.549a.792.792,0,0,0,0,1.584,1.194,1.194,0,0,1,0,2.388H60.288c-1.978,0-3.346-.1-4.1-1.382V12.271a2.7,2.7,0,0,0-.073-.616A8.751,8.751,0,0,1,57.941,9.686Zm-8.036,2.585a1.137,1.137,0,0,1,1.136-1.136h2.43a1.137,1.137,0,0,1,1.136,1.136V24.329a1.137,1.137,0,0,1-1.136,1.136h-2.43a1.136,1.136,0,0,1-1.136-1.136ZM5.8,30.506a4.217,4.217,0,0,1-4.212-4.212V5.8A4.217,4.217,0,0,1,5.8,1.584H38.381A4.217,4.217,0,0,1,42.593,5.8V22.765H32.03a7.471,7.471,0,0,0-7.462,7.462v.279Zm.882,41.716a10.935,10.935,0,0,1,10.03-7.246,10.934,10.934,0,0,1,10.03,7.246,15.093,15.093,0,0,1-20.06,0Zm21.285-1.217a12.6,12.6,0,0,0-3.9-5.049,12.272,12.272,0,0,0-7.343-2.563H16.7a12.273,12.273,0,0,0-7.343,2.563,12.6,12.6,0,0,0-3.9,5.049,15.124,15.124,0,1,1,22.509,0ZM76.037,49.618A5.885,5.885,0,0,1,70.159,55.5H64.517a.792.792,0,0,0-.792.792v8.835L52.239,55.677a.792.792,0,0,0-.5-.18H32.515a16.789,16.789,0,0,0-6.363-8.359V30.228a5.885,5.885,0,0,1,5.878-5.878H48.322a2.722,2.722,0,0,0,2.719,2.7h2.43a2.716,2.716,0,0,0,2.2-1.128c1.3,1.127,3.1,1.127,4.617,1.127h9.261a2.781,2.781,0,0,0,2.734-2.3,5.9,5.9,0,0,1,3.754,5.481Zm-23.51-2.356a.792.792,0,0,1-.792.792H34.9a.792.792,0,1,1,0-1.584H51.736a.792.792,0,0,1,.792.792ZM68.08,39.923a.792.792,0,0,1-.792.792H34.9a.792.792,0,0,1,0-1.584H67.288a.792.792,0,0,1,.792.792Zm0-7.339a.792.792,0,0,1-.792.792H34.9a.792.792,0,0,1,0-1.584H67.288a.792.792,0,0,1,.792.792ZM16.708,49.5a6.135,6.135,0,1,0,6.135,6.135A6.142,6.142,0,0,0,16.708,49.5Zm0,10.686a4.551,4.551,0,1,1,4.551-4.551A4.556,4.556,0,0,1,16.708,60.188Z" transform="translate(0 0)" fill="#a131c9"/>
        <g transform="matrix(1, 0, 0, 1, 0, 0)" filter="url(#Path_134)">
          <path id="Path_134-3" data-name="Path 134" d="M28.658,16.045a2.518,2.518,0,0,0-1.274-2.2L19.338,9.2a2.541,2.541,0,0,0-3.815,2.2v9.29a2.549,2.549,0,0,0,2.54,2.549,2.545,2.545,0,0,0,1.275-.346l8.045-4.645A2.519,2.519,0,0,0,28.658,16.045Zm-2.066.831-8.045,4.645a.957.957,0,0,1-1.439-.831V11.4a.942.942,0,0,1,.478-.833.982.982,0,0,1,.482-.131.946.946,0,0,1,.479.133l8.045,4.645a.957.957,0,0,1,0,1.662ZM72.018,23a2.8,2.8,0,0,0-.148-.256A2.776,2.776,0,0,0,72.9,18.811a2.776,2.776,0,0,0,1.054-4.049,2.778,2.778,0,0,0-1.385-5.186H65.39a3.758,3.758,0,0,1-.333-3.323,6.417,6.417,0,0,0,.286-2.745A4.473,4.473,0,0,0,63.654.466a2.4,2.4,0,0,0-1.963-.4c-.559.132-1.87.7-1.959,3.141a8.621,8.621,0,0,1-2.1,4.627c-.242.231-.48.438-.732.656a11.464,11.464,0,0,0-1.685,1.7,2.707,2.707,0,0,0-1.747-.638h-2.43a2.723,2.723,0,0,0-2.72,2.72V22.765H44.178V5.8a5.8,5.8,0,0,0-5.8-5.8H5.8A5.8,5.8,0,0,0,0,5.8v20.5a5.8,5.8,0,0,0,5.8,5.8H24.568V46.173a16.689,16.689,0,1,0,8.4,10.908H51.452L64.014,67.412a.792.792,0,0,0,1.3-.612V57.081h4.85a7.471,7.471,0,0,0,7.462-7.462V30.228A7.48,7.48,0,0,0,72.018,23ZM57.941,9.686c.255-.221.519-.451.789-.708a10.1,10.1,0,0,0,2.585-5.714c.016-.45.122-1.511.74-1.658a.833.833,0,0,1,.693.16A2.921,2.921,0,0,1,63.77,3.7a4.938,4.938,0,0,1-.24,2.127,5.04,5.04,0,0,0-.106,3.083.792.792,0,0,0-1.252.951,2.411,2.411,0,0,0,2.13,1.3h8.269a1.194,1.194,0,1,1,0,2.388h-.91a.792.792,0,1,0,0,1.584,1.194,1.194,0,1,1,0,2.388h-1.1a.792.792,0,1,0,0,1.584,1.194,1.194,0,1,1,0,2.388H69.549a.792.792,0,0,0,0,1.584,1.194,1.194,0,0,1,0,2.388H60.288c-1.978,0-3.346-.1-4.1-1.382V12.271a2.7,2.7,0,0,0-.073-.616A8.751,8.751,0,0,1,57.941,9.686Zm-8.036,2.585a1.137,1.137,0,0,1,1.136-1.136h2.43a1.137,1.137,0,0,1,1.136,1.136V24.329a1.137,1.137,0,0,1-1.136,1.136h-2.43a1.136,1.136,0,0,1-1.136-1.136ZM5.8,30.506a4.217,4.217,0,0,1-4.212-4.212V5.8A4.217,4.217,0,0,1,5.8,1.584H38.381A4.217,4.217,0,0,1,42.593,5.8V22.765H32.03a7.471,7.471,0,0,0-7.462,7.462v.279Zm.882,41.716a10.935,10.935,0,0,1,10.03-7.246,10.934,10.934,0,0,1,10.03,7.246,15.093,15.093,0,0,1-20.06,0Zm21.285-1.217a12.6,12.6,0,0,0-3.9-5.049,12.272,12.272,0,0,0-7.343-2.563H16.7a12.273,12.273,0,0,0-7.343,2.563,12.6,12.6,0,0,0-3.9,5.049,15.124,15.124,0,1,1,22.509,0ZM76.037,49.618A5.885,5.885,0,0,1,70.159,55.5H64.517a.792.792,0,0,0-.792.792v8.835L52.239,55.677a.792.792,0,0,0-.5-.18H32.515a16.789,16.789,0,0,0-6.363-8.359V30.228a5.885,5.885,0,0,1,5.878-5.878H48.322a2.722,2.722,0,0,0,2.719,2.7h2.43a2.716,2.716,0,0,0,2.2-1.128c1.3,1.127,3.1,1.127,4.617,1.127h9.261a2.781,2.781,0,0,0,2.734-2.3,5.9,5.9,0,0,1,3.754,5.481Zm-23.51-2.356a.792.792,0,0,1-.792.792H34.9a.792.792,0,1,1,0-1.584H51.736a.792.792,0,0,1,.792.792ZM68.08,39.923a.792.792,0,0,1-.792.792H34.9a.792.792,0,0,1,0-1.584H67.288a.792.792,0,0,1,.792.792Zm0-7.339a.792.792,0,0,1-.792.792H34.9a.792.792,0,0,1,0-1.584H67.288a.792.792,0,0,1,.792.792ZM16.708,49.5a6.135,6.135,0,1,0,6.135,6.135A6.142,6.142,0,0,0,16.708,49.5Zm0,10.686a4.551,4.551,0,1,1,4.551-4.551A4.556,4.556,0,0,1,16.708,60.188Z" transform="translate(0 0)" fill="#fff"/>
        </g>
      </g>
    </g>
  </g>
</svg>
