<svg id="svgexport-15_90_" data-name="svgexport-15 (90)" xmlns="http://www.w3.org/2000/svg" width="82.249" height="82.249" viewBox="0 0 82.249 82.249">
  <path id="Path_135" data-name="Path 135" d="M47.273,18.736A23.185,23.185,0,1,0,63.512,34.975a2.57,2.57,0,0,1,4.958-1.359A28.326,28.326,0,1,1,48.632,13.779a2.57,2.57,0,1,1-1.359,4.958ZM77.368,27.7A2.57,2.57,0,0,0,75.633,30.9a35.946,35.946,0,1,1-24.28-24.28,2.57,2.57,0,1,0,1.459-4.929,41.087,41.087,0,1,0,27.75,27.75A2.571,2.571,0,0,0,77.368,27.7ZM41.124,30.843a10.447,10.447,0,0,1,1.135.062,2.57,2.57,0,0,0,.561-5.11A15.422,15.422,0,1,0,56.546,41.124a2.57,2.57,0,0,0-5.141,0A10.281,10.281,0,1,1,41.124,30.843Zm13.123-6.477,1.28-12.843a2.569,2.569,0,0,1,.74-1.563L65.477.753a2.57,2.57,0,0,1,4.38,1.616l.73,9.293,9.293.73a2.57,2.57,0,0,1,1.616,4.38L72.287,25.98a2.569,2.569,0,0,1-1.562.74L57.883,28,42.942,42.942a2.57,2.57,0,0,1-3.635-3.635Zm5.336-1.7L69.3,21.7l4.616-4.616-5.923-.465a2.571,2.571,0,0,1-2.361-2.361l-.465-5.923-4.616,4.616Z" fill="#c75ced"/>
</svg>
