<svg xmlns="http://www.w3.org/2000/svg" width="70.769" height="70.769" viewBox="0 0 70.769 70.769">
  <g id="svgexport-15_94_" data-name="svgexport-15 (94)" transform="translate(-16 -16)">
    <path id="Path_142" data-name="Path 142" d="M50.2,79.692h2.359v2.359H50.2ZM21.9,41.949h4.34l7.949,5.678a1.179,1.179,0,0,0,1.842-1.192l-.9-4.486h8a5.9,5.9,0,0,0,5.9-5.9V21.9a5.9,5.9,0,0,0-5.9-5.9H21.9A5.9,5.9,0,0,0,16,21.9V36.051A5.9,5.9,0,0,0,21.9,41.949ZM18.359,21.9A3.542,3.542,0,0,1,21.9,18.359H43.128A3.542,3.542,0,0,1,46.666,21.9V36.051a3.542,3.542,0,0,1-3.538,3.538H33.692A1.179,1.179,0,0,0,32.536,41l.594,2.972L27.3,39.809a1.179,1.179,0,0,0-.685-.219H21.9a3.542,3.542,0,0,1-3.538-3.538Z" fill="#c75ced"/>
    <path id="Path_143" data-name="Path 143" d="M65.244,55.077v7.077a1.179,1.179,0,0,0,1.179,1.179h9.436a1.179,1.179,0,0,0,1.179-1.179V61.7l3.011,1.505a1.179,1.179,0,0,0,1.707-1.055V55.077a1.179,1.179,0,0,0-1.707-1.055l-3.011,1.505v-.45c0-.02-.01-.036-.011-.055a4.123,4.123,0,1,0-5.886-5.773,4.123,4.123,0,1,0-5.886,5.774C65.254,55.041,65.244,55.057,65.244,55.077Zm9.436,5.9H67.6V56.256H74.68ZM79.4,56.985v3.26l-2.359-1.179v-.9ZM74.09,50.359a1.769,1.769,0,1,1-1.769,1.769A1.769,1.769,0,0,1,74.09,50.359Zm-5.9,0a1.769,1.769,0,1,1-1.769,1.769A1.769,1.769,0,0,1,68.193,50.359Zm53.666,2.359H111.125A5.907,5.907,0,0,0,105.346,48H92.372v2.359h12.974a3.533,3.533,0,0,1,3.321,2.359H98.27a5.9,5.9,0,0,0-5.9,5.9V72.769a5.9,5.9,0,0,0,5.9,5.9h9.177l-.9,4.486a1.179,1.179,0,0,0,1.842,1.192l.494-.353v4.8L105.591,85.5a5.349,5.349,0,0,0-7.565,7.565l6.98,6.98a11.082,11.082,0,0,0-1.108,2.212H73.5v5.9a5.9,5.9,0,0,0,5.9,5.9H120.68a1.179,1.179,0,0,0,1.179-1.179V90.508a12.915,12.915,0,0,0-3.158-8.481l-2.51-3.254.148-.106h5.52a5.9,5.9,0,0,0,5.9-5.9V58.615A5.9,5.9,0,0,0,121.859,52.718ZM98.27,55.077h23.59a3.542,3.542,0,0,1,3.538,3.538v11.95l-5.243-3.5a1.181,1.181,0,0,0-1.309,0l-6.382,4.254L103.7,64.749a1.178,1.178,0,0,0-1.414,0l-7.55,5.662V58.615A3.542,3.542,0,0,1,98.27,55.077Zm-22.41,53.077v-3.538H103.24a11.489,11.489,0,0,0,1.151,7.077H79.4A3.542,3.542,0,0,1,75.859,108.153Zm41.019-24.63a10.615,10.615,0,0,1,2.622,6.985v21.183H107.121a9.139,9.139,0,0,1-1.281-7.921,8.849,8.849,0,0,1,1.133-2.426l.531-.79a1.179,1.179,0,0,0-.145-1.492L99.693,91.4a2.991,2.991,0,1,1,4.23-4.229l10.026,10.026,1.668-1.668-4.372-4.373V82.306l3.027-2.162Zm4.981-7.216h-5.9a1.18,1.18,0,0,0-.685.219l-5.829,4.164.594-2.972a1.179,1.179,0,0,0-1.156-1.411H98.27a3.534,3.534,0,0,1-3.483-2.991l8.2-6.15,8.728,6.546a1.178,1.178,0,0,0,1.362.038l6.423-4.282,5.838,3.892a3.536,3.536,0,0,1-3.479,2.947Z" transform="translate(-40.988 -27.282)" fill="#c75ced"/>
    <path id="Path_144" data-name="Path 144" d="M71.436,121.436a4.718,4.718,0,1,0-4.718-4.718,4.718,4.718,0,0,0,4.718,4.718Zm0-7.077a2.359,2.359,0,1,1-2.359,2.359,2.359,2.359,0,0,1,2.359-2.359ZM21.9,154.461H40.769a5.9,5.9,0,0,0,5.9-5.9v-7.077a5.9,5.9,0,0,0-5.9-5.9h-.848l.812-3.252A1.179,1.179,0,0,0,39,131.027L31.02,135.59H21.9a5.9,5.9,0,0,0-5.9,5.9v7.077A5.9,5.9,0,0,0,21.9,154.461Zm-3.538-12.974a3.542,3.542,0,0,1,3.538-3.538h9.436a1.179,1.179,0,0,0,.585-.155l5.857-3.347-.509,2.037a1.179,1.179,0,0,0,1.144,1.466h2.359a3.542,3.542,0,0,1,3.538,3.538v7.077a3.542,3.542,0,0,1-3.538,3.538H21.9a3.542,3.542,0,0,1-3.538-3.538Z" transform="translate(0 -81.846)" fill="#c75ced"/>
    <path id="Path_145" data-name="Path 145" d="M48,312H60.974v2.359H48Zm15.333,0h5.9v2.359h-5.9ZM48,316.718H69.231v2.359H48Z" transform="translate(-27.282 -252.359)" fill="#c75ced"/>
  </g>
</svg>
