<svg xmlns="http://www.w3.org/2000/svg" width="75.753" height="75.753" viewBox="0 0 75.753 75.753">
  <g id="svgexport-15_93_" data-name="svgexport-15 (93)" transform="translate(-1.75 -1.75)">
    <path id="Path_140" data-name="Path 140" d="M18.763,24H16.254A1.254,1.254,0,0,0,15,25.254V35.288a1.254,1.254,0,0,0,1.254,1.254h2.508a3.761,3.761,0,0,0,2.8-6.271A3.761,3.761,0,0,0,18.763,24Zm0,10.034H17.508V31.526h1.254a1.255,1.255,0,0,1,0,2.508Zm0-5.017H17.508V26.509h1.254a1.255,1.255,0,0,1,0,2.508ZM31.3,27.763A3.767,3.767,0,0,0,27.542,24H25.034a1.254,1.254,0,0,0-1.254,1.254V36.542h2.508V31.526h.7a7.249,7.249,0,0,1,1.807,4.8v.216H31.3v-.216a9.745,9.745,0,0,0-1.651-5.453A3.76,3.76,0,0,0,31.3,27.763Zm-5.017-1.254h1.254a1.255,1.255,0,0,1,0,2.508H26.288ZM36.322,24a3.767,3.767,0,0,0-3.763,3.763v8.78h2.508V32.78h2.508v3.763h2.508v-8.78A3.767,3.767,0,0,0,36.322,24Zm-1.254,6.271V27.763a1.255,1.255,0,0,1,2.508,0v2.508Zm11.288-.3-2.64-5.282a1.254,1.254,0,0,0-2.377.562V36.544h2.508V30.569l2.64,5.282a1.254,1.254,0,0,0,2.377-.561V24H46.355v5.975ZM53.881,24H51.372a1.254,1.254,0,0,0-1.254,1.254V35.288a1.254,1.254,0,0,0,1.254,1.254h2.508a3.767,3.767,0,0,0,3.763-3.763V27.763A3.767,3.767,0,0,0,53.881,24Zm1.254,8.78a1.255,1.255,0,0,1-1.254,1.254H52.627V26.509h1.254a1.255,1.255,0,0,1,1.254,1.254Z" transform="translate(3.305 5.593)" fill="#c75ced" stroke="#c75ced" stroke-width="0.5"/>
    <path id="Path_141" data-name="Path 141" d="M72.236,17.051A1.254,1.254,0,0,0,73.49,15.8V13.288h3.763V10.78H73.49V8.271a1.254,1.254,0,0,0-1.254-1.254H69.728V2H67.219V7.017H64.711a1.254,1.254,0,0,0-1.254,1.254V10.78H15.8V8.271a1.254,1.254,0,0,0-1.254-1.254H12.034V2H9.525V7.017H7.017A1.254,1.254,0,0,0,5.763,8.271V10.78H2v2.508H5.763V15.8a1.254,1.254,0,0,0,1.254,1.254H9.525V62.2H7.017a1.254,1.254,0,0,0-1.254,1.254v2.508H2v2.508H5.763v2.508a1.254,1.254,0,0,0,1.254,1.254H9.525v5.017h2.508V72.236h2.508A1.254,1.254,0,0,0,15.8,70.982V68.474H41.616l5.9,5.9a1.25,1.25,0,0,0,1.773,0l5.9-5.9h8.26v2.508a1.254,1.254,0,0,0,1.254,1.254h2.508v5.017h2.508V72.236h2.508a1.254,1.254,0,0,0,1.254-1.254V68.474h3.763V65.965H73.49V63.457A1.254,1.254,0,0,0,72.236,62.2H69.728V17.051ZM65.965,9.525h5.017v5.017H65.965Zm-57.694,0h5.017v5.017H8.271Zm5.017,60.2H8.271V64.711h5.017ZM37.853,58.44A5.535,5.535,0,0,0,43.389,52.9v-.735H40.881V52.9a3,3,0,0,1-.2,1.056l-6.241-6.241,11.491,1.768a16.371,16.371,0,0,0,3.317,8.842L43.28,64.3a16.375,16.375,0,0,0-8.843-3.317l-1.767-11.49,6.24,6.24a3.029,3.029,0,0,1-1.056.2h-.735v2.508h.735ZM48.406,71.717l-4.5-4.5,8.26-8.26,4.5,4.5Zm22.576-1.989H65.965V64.711h5.017ZM67.219,62.2H64.711a1.254,1.254,0,0,0-1.254,1.254v2.508H57.7l1.622-1.622a1.253,1.253,0,0,0,0-1.773L53.055,56.3a1.253,1.253,0,0,0-1.773,0l-.241.241a13.872,13.872,0,0,1-2.635-8.134,1.254,1.254,0,0,0-1.064-1.239l-16.3-2.508a1.254,1.254,0,0,0-1.43,1.43l2.508,16.3a1.254,1.254,0,0,0,1.239,1.064A13.867,13.867,0,0,1,41.3,65.965H15.8V63.457A1.254,1.254,0,0,0,14.542,62.2H12.034V17.051h2.508A1.254,1.254,0,0,0,15.8,15.8V13.288h47.66V15.8a1.254,1.254,0,0,0,1.254,1.254h2.508Z" transform="translate(0 0)" fill="#c75ced" stroke="#c75ced" stroke-width="0.5"/>
  </g>
</svg>
