<svg xmlns="http://www.w3.org/2000/svg" width="68.123" height="68.123" viewBox="0 0 68.123 68.123">
  <g id="svgexport-15_92_" data-name="svgexport-15 (92)" transform="translate(-2 -2)">
    <path id="Path_139" data-name="Path 139" d="M36.062,23.9a2.433,2.433,0,0,1-2.085-1.18L31.685,18.9a14.831,14.831,0,0,0-12.654-7.165V6.866a19.723,19.723,0,0,1,16.826,9.527l.2.341.2-.341A19.722,19.722,0,0,1,53.092,6.866v4.866A14.829,14.829,0,0,0,40.441,18.9l-2.294,3.82A2.433,2.433,0,0,1,36.062,23.9ZM67.69,60.391h-7.3v4.866h7.3a2.433,2.433,0,1,0,0-4.866Zm-24.33,0H4.433a2.433,2.433,0,0,0,0,4.866H43.36ZM23.9,45.793H9.3a2.433,2.433,0,1,0,0,4.866H23.9Zm0-7.3H4.433a2.433,2.433,0,0,0,0,4.866H23.9Zm0-7.3H9.3a2.433,2.433,0,1,0,0,4.866H23.9Zm4.866,24.33a2.431,2.431,0,0,1-2.433-2.433V28.763a2.433,2.433,0,0,1,3.615-2.126L51.842,38.8a2.433,2.433,0,0,1,0,4.253l-21.9,12.165a2.435,2.435,0,0,1-1.182.307ZM31.2,32.9V48.956l14.452-8.029ZM9.3,16.6a7.3,7.3,0,1,1,7.3-7.3A7.308,7.308,0,0,1,9.3,16.6Zm0-9.732A2.433,2.433,0,1,0,11.732,9.3,2.437,2.437,0,0,0,9.3,6.866ZM62.824,16.6a7.3,7.3,0,1,1,7.3-7.3A7.308,7.308,0,0,1,62.824,16.6Zm0-9.732A2.435,2.435,0,1,0,65.151,9.3a2.435,2.435,0,0,0-2.327-2.433Zm-7.3,63.257h-7.3a2.433,2.433,0,0,1-2.433-2.433V57.958a2.433,2.433,0,0,1,2.433-2.433h7.3a2.433,2.433,0,0,1,2.433,2.433V67.69A2.433,2.433,0,0,1,55.525,70.123Zm-4.866-4.866h2.433V60.391H50.659Z" fill="#c75ced"/>
  </g>
</svg>
