<svg xmlns="http://www.w3.org/2000/svg" width="85.843" height="85.867" viewBox="0 0 85.843 85.867">
  <g id="svgexport-15_91_" data-name="svgexport-15 (91)" transform="translate(-0.5)">
    <path id="Path_136" data-name="Path 136" d="M75.437,53.292a33.784,33.784,0,0,0,.011-20.713A16.83,16.83,0,0,0,69.034.007,16.859,16.859,0,0,0,53.761,10.893a33.79,33.79,0,0,0-20.687,0A16.826,16.826,0,1,0,11.4,32.571,33.789,33.789,0,0,0,11.4,53.292,16.853,16.853,0,0,0,.5,69.041a16.673,16.673,0,0,0,1.632,7.237A1.258,1.258,0,0,0,4.4,75.195a14.172,14.172,0,0,1-1.387-6.154A14.311,14.311,0,1,1,7.641,79.575a1.258,1.258,0,1,0-1.7,1.851,16.826,16.826,0,0,0,27.147-6.484,33.795,33.795,0,0,0,20.674,0A16.826,16.826,0,1,0,75.437,53.292ZM59.111,7a14.219,14.219,0,0,1,10-4.479q.208-.006.415-.006a14.31,14.31,0,0,1,.4,28.614q-.208.006-.415.006A14.31,14.31,0,0,1,59.111,7ZM53.053,72.528a31.279,31.279,0,0,1-19.263,0A16.832,16.832,0,0,0,13.82,52.584a31.266,31.266,0,0,1-.009-19.3,16.85,16.85,0,0,0,11.741-1.773,1.258,1.258,0,0,0-1.231-2.193A14.32,14.32,0,1,1,28.4,25.9a1.258,1.258,0,1,0,1.945,1.6,16.831,16.831,0,0,0,3.441-14.18,31.273,31.273,0,0,1,19.271,0A16.848,16.848,0,0,0,69.509,33.651a17.016,17.016,0,0,0,3.524-.369,31.284,31.284,0,0,1-.012,19.3A16.833,16.833,0,0,0,53.053,72.528ZM69.516,83.352a14.31,14.31,0,1,1,14.311-14.31A14.326,14.326,0,0,1,69.516,83.352Zm0,0" transform="translate(0)" fill="#c75ced"/>
    <path id="Path_137" data-name="Path 137" d="M58.858,44.516a1.257,1.257,0,0,0-1.433.012,7.077,7.077,0,0,1-1.369.754,4.677,4.677,0,0,0-7.527,3.162A6.857,6.857,0,0,1,43.921,45.6a1.258,1.258,0,0,0-2.179.212,10.648,10.648,0,0,0-.774,4.382,7.683,7.683,0,0,0,3.094,5.949,7.637,7.637,0,0,1-2.645.366,1.258,1.258,0,0,0-.661,2.356,12.684,12.684,0,0,0,6.153,1.645,11.092,11.092,0,0,0,5.649-1.522,10.514,10.514,0,0,0,4.59-5.6,1.323,1.323,0,0,0,.067-.188,13.07,13.07,0,0,0,.669-4.21c0-.065,0-.132,0-.2a7.155,7.155,0,0,0,1.495-2.934,1.259,1.259,0,0,0-.515-1.338Zm-3.53,4.076a2.141,2.141,0,0,1,.038.4,10.6,10.6,0,0,1-.533,3.407,1.2,1.2,0,0,0-.048.147,7.967,7.967,0,0,1-3.5,4.274,8.649,8.649,0,0,1-5.046,1.148,10.018,10.018,0,0,0,1.178-.686,1.258,1.258,0,0,0-.2-2.191,5.586,5.586,0,0,1-3.732-4.933,7.272,7.272,0,0,1,.046-1.3,9.375,9.375,0,0,0,6.26,2.175,1.258,1.258,0,0,0,1.226-1.257v-.78a2.16,2.16,0,0,1,3.789-1.446,1.256,1.256,0,0,0,.577.375,1.262,1.262,0,0,0-.054.668Zm43.015,4.341h1.783v7.5a1.258,1.258,0,1,0,2.516,0v-7.5h1.942a1.258,1.258,0,0,0,0-2.516h-1.942V46.9a2.194,2.194,0,0,1,2.192-2.191h1.628a1.258,1.258,0,0,0,0-2.516h-1.628a4.713,4.713,0,0,0-4.708,4.707v3.519H98.343a1.258,1.258,0,0,0,0,2.516Zm-50.9,57.729a1.73,1.73,0,0,0,.865-.231l8.562-4.945a1.73,1.73,0,0,0,0-3L48.3,97.542a1.731,1.731,0,0,0-2.6,1.5v9.89a1.73,1.73,0,0,0,1.731,1.73Zm.785-10.26,6.208,3.586-6.208,3.585Zm59.724-5.153H97.017a3.447,3.447,0,0,0-3.443,3.444v10.929a3.448,3.448,0,0,0,3.443,3.444h10.931a3.447,3.447,0,0,0,3.443-3.444V98.692A3.447,3.447,0,0,0,107.948,95.248Zm.927,14.373a.929.929,0,0,1-.927.928H97.017a.929.929,0,0,1-.928-.928V98.692a.929.929,0,0,1,.928-.928h10.931a.929.929,0,0,1,.927.928Zm0,0" transform="translate(-32.966 -35.115)" fill="#c75ced"/>
    <path id="Path_138" data-name="Path 138" d="M224.959,213.465a3.8,3.8,0,1,0,3.8,3.8A3.807,3.807,0,0,0,224.959,213.465Zm0,5.088a1.286,1.286,0,1,1,1.287-1.286A1.288,1.288,0,0,1,224.959,218.553Zm-16.992-40.46a1.258,1.258,0,0,0-1.258,1.258v.564a37.261,37.261,0,0,1-10.275,4.152,1.451,1.451,0,0,0-.887-.3h-5.759a2.526,2.526,0,0,0-2.523,2.523v6.606a2.525,2.525,0,0,0,2.523,2.523h1.151l.436,8.387a1.258,1.258,0,0,0,2.512-.131l-.43-8.256h2.089a1.449,1.449,0,0,0,.887-.3q1.532.369,3.028.865a1.258,1.258,0,0,0,.792-2.388q-1.606-.533-3.253-.929v-6.14a39.876,39.876,0,0,0,9.707-3.714v13.57q-.827-.447-1.674-.854a1.258,1.258,0,0,0-1.09,2.267q1.412.681,2.765,1.477v.561a1.258,1.258,0,1,0,2.516,0V179.351a1.257,1.257,0,0,0-1.257-1.258Zm-13.48,14.8-4.706-.007.007-6.613h4.7Zm0,0" transform="translate(-155.444 -148.225)" fill="#c75ced"/>
  </g>
</svg>
